  0
SECTION
  2
HEADER
  9
$ACADVER
  1
AC1009
  9
$INSBASE
 10
0.0
 20
0.0
 30
0.0
  9
$EXTMAX
 10
11.5696
 20
14.9844
 30
0.0
  9
$EXTMIN
 10
0.9348
 20
3.6487
 30
0.0
  9
$LIMMAX
 10
12.0
 20
9.0
  9
$LIMMIN
 10
0.0
 20
0.0
  9
$ORTHOMODE
 70
0
  9
$REGENMODE
 70
1
  9
$FILLMODE
 70
1
  9
$QTEXTMODE
 70
0
  9
$MIRRTEXT
 70
1
  9
$DRAGMODE
 70
2
  9
$LTSCALE
 40
1.0
  9
$OSMODE
 70
0
  9
$ATTMODE
 70
1
  9
$TEXTSIZE
 40
0.2
  9
$TRACEWID
 40
0.05
  9
$TEXTSTYLE
  7
STANDARD
  9
$CLAYER
  8
0
  9
$CELTYPE
  6
CONTINUOUS
  9
$CECOLOR
 62
256
  9
$DIMSCALE
 40
1.0
  9
$DIMASZ
 40
0.18
  9
$DIMEXO
 40
0.0625
  9
$DIMDLI
 40
0.38
  9
$DIMRND
 40
0.0
  9
$DIMDLE
 40
0.0
  9
$DIMEXE
 40
0.18
  9
$DIMTP
 40
0.0
  9
$DIMTM
 40
0.0
  9
$DIMTXT
 40
0.18
  9
$DIMCEN
 40
0.09
  9
$DIMTSZ
 40
0.0
  9
$DIMTOL
 70
0
  9
$DIMLIM
 70
0
  9
$DIMTIH
 70
1
  9
$DIMTOH
 70
1
  9
$DIMSE1
 70
0
  9
$DIMSE2
 70
0
  9
$DIMTAD
 70
0
  9
$DIMZIN
 70
0
  9
$DIMBLK
  1

  9
$DIMASO
 70
1
  9
$DIMSHO
 70
1
  9
$DIMPOST
  1

  9
$DIMAPOST
  1

  9
$DIMALT
 70
0
  9
$DIMALTD
 70
2
  9
$DIMALTF
 40
25.4
  9
$DIMLFAC
 40
1.0
  9
$DIMTOFL
 70
0
  9
$DIMTVP
 40
0.0
  9
$DIMTIX
 70
0
  9
$DIMSOXD
 70
0
  9
$DIMSAH
 70
0
  9
$DIMBLK1
  1

  9
$DIMBLK2
  1

  9
$DIMSTYLE
  2
*UNNAMED
  9
$DIMCLRD
 70
0
  9
$DIMCLRE
 70
0
  9
$DIMCLRT
 70
0
  9
$DIMTFAC
 40
1.0
  9
$DIMGAP
 40
0.09
  9
$LUNITS
 70
2
  9
$LUPREC
 70
4
  9
$AXISMODE
 70
0
  9
$AXISUNIT
 10
0.0
 20
0.0
  9
$SKETCHINC
 40
0.1
  9
$FILLETRAD
 40
0.0
  9
$AUNITS
 70
0
  9
$AUPREC
 70
0
  9
$MENU
  1
acad
  9
$ELEVATION
 40
0.0
  9
$PELEVATION
 40
0.0
  9
$THICKNESS
 40
0.0
  9
$LIMCHECK
 70
0
  9
$BLIPMODE
 70
1
  9
$CHAMFERA
 40
0.0
  9
$CHAMFERB
 40
0.0
  9
$SKPOLY
 70
0
  9
$TDCREATE
 40
0.0
  9
$TDUPDATE
 40
0.0
  9
$TDINDWG
 40
0.0
  9
$TDUSRTIMER
 40
0.0
  9
$USRTIMER
 70
1
  9
$ANGBASE
 50
0.0
  9
$ANGDIR
 70
0
  9
$PDMODE
 70
0
  9
$PDSIZE
 40
0.0
  9
$PLINEWID
 40
0.0
  9
$COORDS
 70
0
  9
$SPLFRAME
 70
0
  9
$SPLINETYPE
 70
6
  9
$SPLINESEGS
 70
10
  9
$ATTDIA
 70
0
  9
$ATTREQ
 70
1
  9
$HANDLING
 70
1
  9
$HANDSEED
  5
1CB
  9
$SURFTAB1
 70
6
  9
$SURFTAB2
 70
6
  9
$SURFTYPE
 70
6
  9
$SURFU
 70
10
  9
$SURFV
 70
10
  9
$UCSNAME
  2

  9
$UCSORG
 10
0.0
 20
0.0
 30
0.0
  9
$UCSXDIR
 10
1.0
 20
0.0
 30
0.0
  9
$UCSYDIR
 10
0.0
 20
1.0
 30
0.0
  9
$PUCSNAME
  2
 
  9
$PUCSORG
 10
0.0
 20
0.0
 30
0.0
  9
$PUCSXDIR
 10
1.0
 20
0.0
 30
0.0
  9
$PUCSYDIR
 10
0.0
 20
1.0
 30
0.0
  9
$USERI1
 70
0
  9
$USERI2
 70
0
  9
$USERI3
 70
0
  9
$USERI4
 70
0
  9
$USERI5
 70
0
  9
$USERR1
 40
0.0
  9
$USERR2
 40
0.0
  9
$USERR3
 40
0.0
  9
$USERR4
 40
0.0
  9
$USERR5
 40
0.0
  9
$WORLDVIEW
 70
1
  9
$SHADEDGE
 70
3
  9
$SHADEDIF
 70
70
  9
$TILEMODE
 70
1
  9
$MAXACTVP
 70
16
  9
$PLIMCHECK
 70
0
  9
$PEXTMIN
 10
-1.000000E+020
 20
-1.000000E+020
 30
-1.000000E+020
  9
$PEXTMAX
 10
-1.000000E+020
 20
-1.000000E+020
 30
-1.000000E+020
  9
$PLIMMIN
 10
0.0
 20
0.0
  9
$PLIMMAX
 10
12.0
 20
9.0
  9
$UNITMODE
 70
0
  9
$VISRETAIN
 70
0
  0
ENDSEC
  0
SECTION
  2
TABLES
  0
TABLE
  2
LTYPE
 70
7
  0
LTYPE
  2
CONTINUOUS
 70
64
  3
Solid line
 72
65
 73
0
 40
0.0
  0
LTYPE
  2
DOT
 70
64
  3
. . . . . . . . . . . . . . . . . . . . . . . . . . . . . . . . .
 72
65
 73
2
 40
0.25
 49
0.0
 49
-0.25
  0
LTYPE
  2
HIDDEN
 70
64
  3
__ __ __ __ __ __ __ __ __ __ __ __ __ __ __ __ __ __ __ __ __ 
 72
65
 73
2
 40
0.375
 49
0.25
 49
-0.125
  0
LTYPE
  2
DASHED
 70
64
  3
__ __ __ __ __ __ __ __ __ __ __ __ __ __ __ __ __ __ __ __ __
 72
65
 73
2
 40
0.75
 49
0.5
 49
-0.25
  0
LTYPE
  2
DASHDOT
 70
64
  3
__ . __ . __ . __ . __ . __ . __ . __ . __ . __ . __ . __ . _
 72
65
 73
4
 40
1.0
 49
0.5
 49
-0.25
 49
0.0
 49
-0.25
  0
LTYPE
  2
DIVIDE
 70
64
  3
____ . . ____ . . ____ . . ____ . . ____ . . ____ . . ____ . .
 72
65
 73
6
 40
1.25
 49
0.5
 49
-0.25
 49
0.0
 49
-0.25
 49
0.0
 49
-0.25
  0
LTYPE
  2
CENTER
 70
64
  3
____ _ ____ _ ____ _ ____ _ ____ _ ____ _ ____ _ ____ _ ____ _
 72
65
 73
4
 40
2.0
 49
1.25
 49
-0.25
 49
0.25
 49
-0.25
  0
ENDTAB
  0
TABLE
  2
APPID
 70
1
  0
APPID
  2
ACAD
 70
0
  0
ENDTAB
  0
TABLE
  2
DIMSTYLE
 70
0
  0
ENDTAB
  0
TABLE
  2
LAYER
 70
4
  0
LAYER
  2
0
 70
0
 62
7
  6
CONTINUOUS
  0
LAYER
  2
CONSTRUCTION_CLASS
 70
0
 62
7
  6
CONTINUOUS
  0
LAYER
  2
PATTERN_CLASS
 70
0
 62
7
  6
CONTINUOUS
  0
LAYER
  2
1
 70
0
 62
7
  6
CONTINUOUS
  0
ENDTAB
  0
TABLE
  2
STYLE
 70
1
  0
STYLE
  2
STANDARD
 70
0
 40
0.2
 41
1.0
 50
0.0
 71
0
 42
0.0
  3
txt
  4

  0
ENDTAB
  0
TABLE
  2
UCS
 70
0
  0
ENDTAB
  0
TABLE
  2
VIEW
 70
0
  0
ENDTAB
  0
TABLE
  2
VPORT
 70
1
  0
VPORT
  2
*ACTIVE
 70
0
 10
0.0
 20
0.0
 11
1.0
 21
1.0
 12
0.0
 22
0.0
 13
0.0
 23
0.0
 14
0.0
 24
0.0
 15
0.0
 25
0.0
 16
0.0
 26
0.0
 36
1.0
 17
5.580371
 27
7.5622
 37
0.0
 40
16.1226
 41
1.317737
 42
50.0
 43
0.0
 44
0.0
 50
0.0
 51
0.0
 71
0
 72
100
 73
1
 74
0
 75
0
 76
0
 77
0
 78
0
  0
ENDTAB
  0
ENDSEC
  0
SECTION
  2
BLOCKS
  0
ENDSEC
  0
SECTION
  2
ENTITIES
  0
POLYLINE
  8
1
  5
2
  6
CONTINUOUS
 62
1
 10
0.0
 20
0.0
 30
0.0
 66
1
 70
0
  0
VERTEX
  8
1
  5
3
  6
CONTINUOUS
 62
1
 10
6.0081
 20
4.1214
 30
0.0
  0
VERTEX
  8
1
  5
4
  6
CONTINUOUS
 62
1
 10
5.8571
 20
3.9762
 30
0.0
  0
VERTEX
  8
1
  5
5
  6
CONTINUOUS
 62
1
 10
5.7714
 20
3.8869
 30
0.0
  0
VERTEX
  8
1
  5
6
  6
CONTINUOUS
 62
1
 10
5.7266
 20
3.8459
 30
0.0
  0
VERTEX
  8
1
  5
7
  6
CONTINUOUS
 62
1
 10
5.6763
 20
3.8385
 30
0.0
  0
VERTEX
  8
1
  5
8
  6
CONTINUOUS
 62
1
 10
5.6204
 20
3.8478
 30
0.0
  0
VERTEX
  8
1
  5
9
  6
CONTINUOUS
 62
1
 10
5.5309
 20
3.8925
 30
0.0
  0
VERTEX
  8
1
  5
A
  6
CONTINUOUS
 62
1
 10
5.4508
 20
3.9539
 30
0.0
  0
VERTEX
  8
1
  5
B
  6
CONTINUOUS
 62
1
 10
5.38
 20
4.006
 30
0.0
  0
VERTEX
  8
1
  5
C
  6
CONTINUOUS
 62
1
 10
5.3073
 20
4.0469
 30
0.0
  0
VERTEX
  8
1
  5
D
  6
CONTINUOUS
 62
1
 10
5.2756
 20
4.0655
 30
0.0
  0
VERTEX
  8
1
  5
E
  6
CONTINUOUS
 62
1
 10
5.2327
 20
4.0674
 30
0.0
  0
VERTEX
  8
1
  5
F
  6
CONTINUOUS
 62
1
 10
5.1936
 20
4.0451
 30
0.0
  0
VERTEX
  8
1
  5
10
  6
CONTINUOUS
 62
1
 10
5.1284
 20
3.9855
 30
0.0
  0
VERTEX
  8
1
  5
11
  6
CONTINUOUS
 62
1
 10
5.0594
 20
3.9166
 30
0.0
  0
VERTEX
  8
1
  5
12
  6
CONTINUOUS
 62
1
 10
5.0072
 20
3.8627
 30
0.0
  0
VERTEX
  8
1
  5
13
  6
CONTINUOUS
 62
1
 10
4.9569
 20
3.8236
 30
0.0
  0
VERTEX
  8
1
  5
14
  6
CONTINUOUS
 62
1
 10
4.901
 20
3.8031
 30
0.0
  0
VERTEX
  8
1
  5
15
  6
CONTINUOUS
 62
1
 10
4.8283
 20
3.7901
 30
0.0
  0
VERTEX
  8
1
  5
16
  6
CONTINUOUS
 62
1
 10
4.7668
 20
3.7882
 30
0.0
  0
VERTEX
  8
1
  5
17
  6
CONTINUOUS
 62
1
 10
4.6195
 20
3.7882
 30
0.0
  0
VERTEX
  8
1
  5
18
  6
CONTINUOUS
 62
1
 10
4.4966
 20
3.7789
 30
0.0
  0
VERTEX
  8
1
  5
19
  6
CONTINUOUS
 62
1
 10
4.422
 20
3.7585
 30
0.0
  0
VERTEX
  8
1
  5
1A
  6
CONTINUOUS
 62
1
 10
4.34
 20
3.7268
 30
0.0
  0
VERTEX
  8
1
  5
1B
  6
CONTINUOUS
 62
1
 10
4.2487
 20
3.6952
 30
0.0
  0
VERTEX
  8
1
  5
1C
  6
CONTINUOUS
 62
1
 10
4.1704
 20
3.6691
 30
0.0
  0
VERTEX
  8
1
  5
1D
  6
CONTINUOUS
 62
1
 10
4.0996
 20
3.6487
 30
0.0
  0
VERTEX
  8
1
  5
1E
  6
CONTINUOUS
 62
1
 10
4.0567
 20
3.6505
 30
0.0
  0
VERTEX
  8
1
  5
1F
  6
CONTINUOUS
 62
1
 10
4.0008
 20
3.6859
 30
0.0
  0
VERTEX
  8
1
  5
20
  6
CONTINUOUS
 62
1
 10
3.9262
 20
3.7417
 30
0.0
  0
VERTEX
  8
1
  5
21
  6
CONTINUOUS
 62
1
 10
3.8349
 20
3.8031
 30
0.0
  0
VERTEX
  8
1
  5
22
  6
CONTINUOUS
 62
1
 10
3.7641
 20
3.8515
 30
0.0
  0
VERTEX
  8
1
  5
23
  6
CONTINUOUS
 62
1
 10
3.7082
 20
3.8999
 30
0.0
  0
VERTEX
  8
1
  5
24
  6
CONTINUOUS
 62
1
 10
3.6653
 20
3.9148
 30
0.0
  0
VERTEX
  8
1
  5
25
  6
CONTINUOUS
 62
1
 10
3.5237
 20
3.8999
 30
0.0
  0
VERTEX
  8
1
  5
26
  6
CONTINUOUS
 62
1
 10
3.3634
 20
3.8887
 30
0.0
  0
VERTEX
  8
1
  5
27
  6
CONTINUOUS
 62
1
 10
3.3261
 20
3.898
 30
0.0
  0
VERTEX
  8
1
  5
28
  6
CONTINUOUS
 62
1
 10
3.2888
 20
3.9334
 30
0.0
  0
VERTEX
  8
1
  5
29
  6
CONTINUOUS
 62
1
 10
3.2329
 20
4.0078
 30
0.0
  0
VERTEX
  8
1
  5
2A
  6
CONTINUOUS
 62
1
 10
3.1975
 20
4.0339
 30
0.0
  0
VERTEX
  8
1
  5
2B
  6
CONTINUOUS
 62
1
 10
3.1155
 20
4.0655
 30
0.0
  0
VERTEX
  8
1
  5
2C
  6
CONTINUOUS
 62
1
 10
3.0372
 20
4.1046
 30
0.0
  0
VERTEX
  8
1
  5
2D
  6
CONTINUOUS
 62
1
 10
2.9328
 20
4.1549
 30
0.0
  0
VERTEX
  8
1
  5
2E
  6
CONTINUOUS
 62
1
 10
2.8117
 20
4.2163
 30
0.0
  0
VERTEX
  8
1
  5
2F
  6
CONTINUOUS
 62
1
 10
2.5769
 20
4.4229
 30
0.0
  0
VERTEX
  8
1
  5
30
  6
CONTINUOUS
 62
1
 10
2.3923
 20
4.5922
 30
0.0
  0
VERTEX
  8
1
  5
31
  6
CONTINUOUS
 62
1
 10
2.2171
 20
4.7541
 30
0.0
  0
VERTEX
  8
1
  5
32
  6
CONTINUOUS
 62
1
 10
2.1426
 20
4.8286
 30
0.0
  0
VERTEX
  8
1
  5
33
  6
CONTINUOUS
 62
1
 10
2.1035
 20
4.89
 30
0.0
  0
VERTEX
  8
1
  5
34
  6
CONTINUOUS
 62
1
 10
2.083
 20
4.957
 30
0.0
  0
VERTEX
  8
1
  5
35
  6
CONTINUOUS
 62
1
 10
2.0718
 20
5.037
 30
0.0
  0
VERTEX
  8
1
  5
36
  6
CONTINUOUS
 62
1
 10
2.068
 20
5.2845
 30
0.0
  0
VERTEX
  8
1
  5
37
  6
CONTINUOUS
 62
1
 10
2.0736
 20
5.3497
 30
0.0
  0
VERTEX
  8
1
  5
38
  6
CONTINUOUS
 62
1
 10
2.1053
 20
5.3869
 30
0.0
  0
VERTEX
  8
1
  5
39
  6
CONTINUOUS
 62
1
 10
2.1072
 20
5.4688
 30
0.0
  0
VERTEX
  8
1
  5
3A
  6
CONTINUOUS
 62
1
 10
2.1053
 20
5.6605
 30
0.0
  0
VERTEX
  8
1
  5
3B
  6
CONTINUOUS
 62
1
 10
2.0959
 20
5.6977
 30
0.0
  0
VERTEX
  8
1
  5
3C
  6
CONTINUOUS
 62
1
 10
2.0624
 20
5.761
 30
0.0
  0
VERTEX
  8
1
  5
3D
  6
CONTINUOUS
 62
1
 10
1.9636
 20
5.9396
 30
0.0
  0
VERTEX
  8
1
  5
3E
  6
CONTINUOUS
 62
1
 10
1.8481
 20
6.1388
 30
0.0
  0
VERTEX
  8
1
  5
3F
  6
CONTINUOUS
 62
1
 10
1.7586
 20
6.2951
 30
0.0
  0
VERTEX
  8
1
  5
40
  6
CONTINUOUS
 62
1
 10
1.6542
 20
6.4663
 30
0.0
  0
VERTEX
  8
1
  5
41
  6
CONTINUOUS
 62
1
 10
1.6375
 20
6.511
 30
0.0
  0
VERTEX
  8
1
  5
42
  6
CONTINUOUS
 62
1
 10
1.6375
 20
6.5556
 30
0.0
  0
VERTEX
  8
1
  5
43
  6
CONTINUOUS
 62
1
 10
1.6095
 20
6.591
 30
0.0
  0
VERTEX
  8
1
  5
44
  6
CONTINUOUS
 62
1
 10
1.4734
 20
6.7176
 30
0.0
  0
VERTEX
  8
1
  5
45
  6
CONTINUOUS
 62
1
 10
1.3448
 20
6.8237
 30
0.0
  0
VERTEX
  8
1
  5
46
  6
CONTINUOUS
 62
1
 10
1.2852
 20
6.8665
 30
0.0
  0
VERTEX
  8
1
  5
47
  6
CONTINUOUS
 62
1
 10
1.2013
 20
6.9148
 30
0.0
  0
VERTEX
  8
1
  5
48
  6
CONTINUOUS
 62
1
 10
1.1175
 20
6.9502
 30
0.0
  0
VERTEX
  8
1
  5
49
  6
CONTINUOUS
 62
1
 10
1.0336
 20
6.9986
 30
0.0
  0
VERTEX
  8
1
  5
4A
  6
CONTINUOUS
 62
1
 10
0.9795
 20
7.0265
 30
0.0
  0
VERTEX
  8
1
  5
4B
  6
CONTINUOUS
 62
1
 10
0.9516
 20
7.047
 30
0.0
  0
VERTEX
  8
1
  5
4C
  6
CONTINUOUS
 62
1
 10
0.9348
 20
7.0693
 30
0.0
  0
VERTEX
  8
1
  5
4D
  6
CONTINUOUS
 62
1
 10
0.9385
 20
7.0954
 30
0.0
  0
VERTEX
  8
1
  5
4E
  6
CONTINUOUS
 62
1
 10
0.9534
 20
7.1289
 30
0.0
  0
VERTEX
  8
1
  5
4F
  6
CONTINUOUS
 62
1
 10
0.9833
 20
7.1642
 30
0.0
  0
VERTEX
  8
1
  5
50
  6
CONTINUOUS
 62
1
 10
1.1137
 20
7.274
 30
0.0
  0
VERTEX
  8
1
  5
51
  6
CONTINUOUS
 62
1
 10
1.3001
 20
7.4434
 30
0.0
  0
VERTEX
  8
1
  5
52
  6
CONTINUOUS
 62
1
 10
1.4082
 20
7.5383
 30
0.0
  0
VERTEX
  8
1
  5
53
  6
CONTINUOUS
 62
1
 10
1.5033
 20
7.6295
 30
0.0
  0
VERTEX
  8
1
  5
54
  6
CONTINUOUS
 62
1
 10
1.5722
 20
7.7021
 30
0.0
  0
VERTEX
  8
1
  5
55
  6
CONTINUOUS
 62
1
 10
1.6039
 20
7.7374
 30
0.0
  0
VERTEX
  8
1
  5
56
  6
CONTINUOUS
 62
1
 10
1.6151
 20
7.7728
 30
0.0
  0
VERTEX
  8
1
  5
57
  6
CONTINUOUS
 62
1
 10
1.63
 20
7.8137
 30
0.0
  0
VERTEX
  8
1
  5
58
  6
CONTINUOUS
 62
1
 10
1.6505
 20
7.8584
 30
0.0
  0
VERTEX
  8
1
  5
59
  6
CONTINUOUS
 62
1
 10
1.6896
 20
7.9198
 30
0.0
  0
VERTEX
  8
1
  5
5A
  6
CONTINUOUS
 62
1
 10
1.7996
 20
8.0464
 30
0.0
  0
VERTEX
  8
1
  5
5B
  6
CONTINUOUS
 62
1
 10
1.8257
 20
8.0929
 30
0.0
  0
VERTEX
  8
1
  5
5C
  6
CONTINUOUS
 62
1
 10
1.8462
 20
8.1301
 30
0.0
  0
VERTEX
  8
1
  5
5D
  6
CONTINUOUS
 62
1
 10
1.876
 20
8.1673
 30
0.0
  0
VERTEX
  8
1
  5
5E
  6
CONTINUOUS
 62
1
 10
1.9021
 20
8.2008
 30
0.0
  0
VERTEX
  8
1
  5
5F
  6
CONTINUOUS
 62
1
 10
1.9469
 20
8.3143
 30
0.0
  0
VERTEX
  8
1
  5
60
  6
CONTINUOUS
 62
1
 10
1.9618
 20
8.3701
 30
0.0
  0
VERTEX
  8
1
  5
61
  6
CONTINUOUS
 62
1
 10
1.9767
 20
8.426
 30
0.0
  0
VERTEX
  8
1
  5
62
  6
CONTINUOUS
 62
1
 10
1.9842
 20
8.4855
 30
0.0
  0
VERTEX
  8
1
  5
63
  6
CONTINUOUS
 62
1
 10
1.9804
 20
8.573
 30
0.0
  0
VERTEX
  8
1
  5
64
  6
CONTINUOUS
 62
1
 10
1.973
 20
8.627
 30
0.0
  0
VERTEX
  8
1
  5
65
  6
CONTINUOUS
 62
1
 10
1.9525
 20
8.6512
 30
0.0
  0
VERTEX
  8
1
  5
66
  6
CONTINUOUS
 62
1
 10
1.9264
 20
8.6735
 30
0.0
  0
VERTEX
  8
1
  5
67
  6
CONTINUOUS
 62
1
 10
1.9171
 20
8.6977
 30
0.0
  0
VERTEX
  8
1
  5
68
  6
CONTINUOUS
 62
1
 10
1.9171
 20
8.6977
 30
0.0
  0
VERTEX
  8
1
  5
69
  6
CONTINUOUS
 62
1
 10
1.9264
 20
8.7312
 30
0.0
  0
VERTEX
  8
1
  5
6A
  6
CONTINUOUS
 62
1
 10
1.9544
 20
8.7703
 30
0.0
  0
VERTEX
  8
1
  5
6B
  6
CONTINUOUS
 62
1
 10
2.0121
 20
8.8317
 30
0.0
  0
VERTEX
  8
1
  5
6C
  6
CONTINUOUS
 62
1
 10
2.0606
 20
8.8763
 30
0.0
  0
VERTEX
  8
1
  5
6D
  6
CONTINUOUS
 62
1
 10
2.0755
 20
8.9061
 30
0.0
  0
VERTEX
  8
1
  5
6E
  6
CONTINUOUS
 62
1
 10
2.0755
 20
8.9322
 30
0.0
  0
VERTEX
  8
1
  5
6F
  6
CONTINUOUS
 62
1
 10
2.0569
 20
8.9545
 30
0.0
  0
VERTEX
  8
1
  5
70
  6
CONTINUOUS
 62
1
 10
2.0382
 20
8.9824
 30
0.0
  0
VERTEX
  8
1
  5
71
  6
CONTINUOUS
 62
1
 10
2.0196
 20
9.0252
 30
0.0
  0
VERTEX
  8
1
  5
72
  6
CONTINUOUS
 62
1
 10
2.0177
 20
9.0736
 30
0.0
  0
VERTEX
  8
1
  5
73
  6
CONTINUOUS
 62
1
 10
2.0401
 20
9.1201
 30
0.0
  0
VERTEX
  8
1
  5
74
  6
CONTINUOUS
 62
1
 10
2.0811
 20
9.1648
 30
0.0
  0
VERTEX
  8
1
  5
75
  6
CONTINUOUS
 62
1
 10
2.1389
 20
9.2337
 30
0.0
  0
VERTEX
  8
1
  5
76
  6
CONTINUOUS
 62
1
 10
2.2358
 20
9.3546
 30
0.0
  0
VERTEX
  8
1
  5
77
  6
CONTINUOUS
 62
1
 10
2.2787
 20
9.4272
 30
0.0
  0
VERTEX
  8
1
  5
78
  6
CONTINUOUS
 62
1
 10
2.3197
 20
9.5035
 30
0.0
  0
VERTEX
  8
1
  5
79
  6
CONTINUOUS
 62
1
 10
2.3607
 20
9.5724
 30
0.0
  0
VERTEX
  8
1
  5
7A
  6
CONTINUOUS
 62
1
 10
2.4073
 20
9.6468
 30
0.0
  0
VERTEX
  8
1
  5
7B
  6
CONTINUOUS
 62
1
 10
2.4613
 20
9.725
 30
0.0
  0
VERTEX
  8
1
  5
7C
  6
CONTINUOUS
 62
1
 10
2.4967
 20
9.8125
 30
0.0
  0
VERTEX
  8
1
  5
7D
  6
CONTINUOUS
 62
1
 10
2.5321
 20
9.872
 30
0.0
  0
VERTEX
  8
1
  5
7E
  6
CONTINUOUS
 62
1
 10
2.5806
 20
9.9223
 30
0.0
  0
VERTEX
  8
1
  5
7F
  6
CONTINUOUS
 62
1
 10
2.5899
 20
9.9595
 30
0.0
  0
VERTEX
  8
1
  5
80
  6
CONTINUOUS
 62
1
 10
2.5881
 20
10.1791
 30
0.0
  0
VERTEX
  8
1
  5
81
  6
CONTINUOUS
 62
1
 10
2.5787
 20
10.2312
 30
0.0
  0
VERTEX
  8
1
  5
82
  6
CONTINUOUS
 62
1
 10
2.5601
 20
10.261
 30
0.0
  0
VERTEX
  8
1
  5
83
  6
CONTINUOUS
 62
1
 10
2.411
 20
10.395
 30
0.0
  0
VERTEX
  8
1
  5
84
  6
CONTINUOUS
 62
1
 10
2.3756
 20
10.4061
 30
0.0
  0
VERTEX
  8
1
  5
85
  6
CONTINUOUS
 62
1
 10
2.3104
 20
10.4098
 30
0.0
  0
VERTEX
  8
1
  5
86
  6
CONTINUOUS
 62
1
 10
2.2582
 20
10.4154
 30
0.0
  0
VERTEX
  8
1
  5
87
  6
CONTINUOUS
 62
1
 10
2.2265
 20
10.4322
 30
0.0
  0
VERTEX
  8
1
  5
88
  6
CONTINUOUS
 62
1
 10
2.1706
 20
10.4768
 30
0.0
  0
VERTEX
  8
1
  5
89
  6
CONTINUOUS
 62
1
 10
2.1053
 20
10.5252
 30
0.0
  0
VERTEX
  8
1
  5
8A
  6
CONTINUOUS
 62
1
 10
2.0662
 20
10.555
 30
0.0
  0
VERTEX
  8
1
  5
8B
  6
CONTINUOUS
 62
1
 10
2.042
 20
10.596
 30
0.0
  0
VERTEX
  8
1
  5
8C
  6
CONTINUOUS
 62
1
 10
2.0476
 20
10.6425
 30
0.0
  0
VERTEX
  8
1
  5
8D
  6
CONTINUOUS
 62
1
 10
2.0662
 20
10.6909
 30
0.0
  0
VERTEX
  8
1
  5
8E
  6
CONTINUOUS
 62
1
 10
2.137
 20
10.7467
 30
0.0
  0
VERTEX
  8
1
  5
8F
  6
CONTINUOUS
 62
1
 10
2.1724
 20
10.7746
 30
0.0
  0
VERTEX
  8
1
  5
90
  6
CONTINUOUS
 62
1
 10
2.2134
 20
10.7932
 30
0.0
  0
VERTEX
  8
1
  5
91
  6
CONTINUOUS
 62
1
 10
2.2488
 20
10.8193
 30
0.0
  0
VERTEX
  8
1
  5
92
  6
CONTINUOUS
 62
1
 10
2.2805
 20
10.8528
 30
0.0
  0
VERTEX
  8
1
  5
93
  6
CONTINUOUS
 62
1
 10
2.3029
 20
10.8937
 30
0.0
  0
VERTEX
  8
1
  5
94
  6
CONTINUOUS
 62
1
 10
2.3122
 20
10.9514
 30
0.0
  0
VERTEX
  8
1
  5
95
  6
CONTINUOUS
 62
1
 10
2.3215
 20
11.0054
 30
0.0
  0
VERTEX
  8
1
  5
96
  6
CONTINUOUS
 62
1
 10
2.3346
 20
11.0575
 30
0.0
  0
VERTEX
  8
1
  5
97
  6
CONTINUOUS
 62
1
 10
2.3551
 20
11.0966
 30
0.0
  0
VERTEX
  8
1
  5
98
  6
CONTINUOUS
 62
1
 10
2.3532
 20
11.1598
 30
0.0
  0
VERTEX
  8
1
  5
99
  6
CONTINUOUS
 62
1
 10
2.3532
 20
11.1952
 30
0.0
  0
VERTEX
  8
1
  5
9A
  6
CONTINUOUS
 62
1
 10
2.3737
 20
11.2306
 30
0.0
  0
VERTEX
  8
1
  5
9B
  6
CONTINUOUS
 62
1
 10
2.4128
 20
11.2696
 30
0.0
  0
VERTEX
  8
1
  5
9C
  6
CONTINUOUS
 62
1
 10
2.4743
 20
11.3311
 30
0.0
  0
VERTEX
  8
1
  5
9D
  6
CONTINUOUS
 62
1
 10
2.5172
 20
11.3646
 30
0.0
  0
VERTEX
  8
1
  5
9E
  6
CONTINUOUS
 62
1
 10
2.547
 20
11.3925
 30
0.0
  0
VERTEX
  8
1
  5
9F
  6
CONTINUOUS
 62
1
 10
2.5899
 20
11.4055
 30
0.0
  0
VERTEX
  8
1
  5
A0
  6
CONTINUOUS
 62
1
 10
2.6421
 20
11.4055
 30
0.0
  0
VERTEX
  8
1
  5
A1
  6
CONTINUOUS
 62
1
 10
2.6961
 20
11.4036
 30
0.0
  0
VERTEX
  8
1
  5
A2
  6
CONTINUOUS
 62
1
 10
2.7353
 20
11.3981
 30
0.0
  0
VERTEX
  8
1
  5
A3
  6
CONTINUOUS
 62
1
 10
2.7912
 20
11.3701
 30
0.0
  0
VERTEX
  8
1
  5
A4
  6
CONTINUOUS
 62
1
 10
2.8415
 20
11.3348
 30
0.0
  0
VERTEX
  8
1
  5
A5
  6
CONTINUOUS
 62
1
 10
2.8937
 20
11.2901
 30
0.0
  0
VERTEX
  8
1
  5
A6
  6
CONTINUOUS
 62
1
 10
2.9757
 20
11.2157
 30
0.0
  0
VERTEX
  8
1
  5
A7
  6
CONTINUOUS
 62
1
 10
3.0186
 20
11.1673
 30
0.0
  0
VERTEX
  8
1
  5
A8
  6
CONTINUOUS
 62
1
 10
3.0502
 20
11.1263
 30
0.0
  0
VERTEX
  8
1
  5
A9
  6
CONTINUOUS
 62
1
 10
3.0763
 20
11.0966
 30
0.0
  0
VERTEX
  8
1
  5
AA
  6
CONTINUOUS
 62
1
 10
3.0968
 20
11.0947
 30
0.0
  0
VERTEX
  8
1
  5
AB
  6
CONTINUOUS
 62
1
 10
3.1267
 20
11.0966
 30
0.0
  0
VERTEX
  8
1
  5
AC
  6
CONTINUOUS
 62
1
 10
3.1565
 20
11.1208
 30
0.0
  0
VERTEX
  8
1
  5
AD
  6
CONTINUOUS
 62
1
 10
3.2199
 20
11.2566
 30
0.0
  0
VERTEX
  8
1
  5
AE
  6
CONTINUOUS
 62
1
 10
3.2497
 20
11.3069
 30
0.0
  0
VERTEX
  8
1
  5
AF
  6
CONTINUOUS
 62
1
 10
3.2832
 20
11.3404
 30
0.0
  0
VERTEX
  8
1
  5
B0
  6
CONTINUOUS
 62
1
 10
3.3298
 20
11.3627
 30
0.0
  0
VERTEX
  8
1
  5
B1
  6
CONTINUOUS
 62
1
 10
3.3876
 20
11.3832
 30
0.0
  0
VERTEX
  8
1
  5
B2
  6
CONTINUOUS
 62
1
 10
3.4603
 20
11.3999
 30
0.0
  0
VERTEX
  8
1
  5
B3
  6
CONTINUOUS
 62
1
 10
3.7249
 20
11.4018
 30
0.0
  0
VERTEX
  8
1
  5
B4
  6
CONTINUOUS
 62
1
 10
3.779
 20
11.4129
 30
0.0
  0
VERTEX
  8
1
  5
B5
  6
CONTINUOUS
 62
1
 10
3.8461
 20
11.4222
 30
0.0
  0
VERTEX
  8
1
  5
B6
  6
CONTINUOUS
 62
1
 10
3.9076
 20
11.4297
 30
0.0
  0
VERTEX
  8
1
  5
B7
  6
CONTINUOUS
 62
1
 10
3.9561
 20
11.4576
 30
0.0
  0
VERTEX
  8
1
  5
B8
  6
CONTINUOUS
 62
1
 10
4.0101
 20
11.5004
 30
0.0
  0
VERTEX
  8
1
  5
B9
  6
CONTINUOUS
 62
1
 10
4.0455
 20
11.5395
 30
0.0
  0
VERTEX
  8
1
  5
BA
  6
CONTINUOUS
 62
1
 10
4.0642
 20
11.586
 30
0.0
  0
VERTEX
  8
1
  5
BB
  6
CONTINUOUS
 62
1
 10
4.0753
 20
11.6363
 30
0.0
  0
VERTEX
  8
1
  5
BC
  6
CONTINUOUS
 62
1
 10
4.094
 20
11.6884
 30
0.0
  0
VERTEX
  8
1
  5
BD
  6
CONTINUOUS
 62
1
 10
4.107
 20
11.7368
 30
0.0
  0
VERTEX
  8
1
  5
BE
  6
CONTINUOUS
 62
1
 10
4.107
 20
11.8075
 30
0.0
  0
VERTEX
  8
1
  5
BF
  6
CONTINUOUS
 62
1
 10
4.1201
 20
11.8447
 30
0.0
  0
VERTEX
  8
1
  5
C0
  6
CONTINUOUS
 62
1
 10
4.1443
 20
11.8652
 30
0.0
  0
VERTEX
  8
1
  5
C1
  6
CONTINUOUS
 62
1
 10
4.2021
 20
11.9061
 30
0.0
  0
VERTEX
  8
1
  5
C2
  6
CONTINUOUS
 62
1
 10
4.4219
 20
12.0141
 30
0.0
  0
VERTEX
  8
1
  5
C3
  6
CONTINUOUS
 62
1
 10
4.5654
 20
12.0979
 30
0.0
  0
VERTEX
  8
1
  5
C4
  6
CONTINUOUS
 62
1
 10
4.6791
 20
12.1704
 30
0.0
  0
VERTEX
  8
1
  5
C5
  6
CONTINUOUS
 62
1
 10
4.7984
 20
12.2318
 30
0.0
  0
VERTEX
  8
1
  5
C6
  6
CONTINUOUS
 62
1
 10
4.8842
 20
12.2765
 30
0.0
  0
VERTEX
  8
1
  5
C7
  6
CONTINUOUS
 62
1
 10
4.9699
 20
12.3137
 30
0.0
  0
VERTEX
  8
1
  5
C8
  6
CONTINUOUS
 62
1
 10
5.0165
 20
12.3528
 30
0.0
  0
VERTEX
  8
1
  5
C9
  6
CONTINUOUS
 62
1
 10
5.0649
 20
12.4105
 30
0.0
  0
VERTEX
  8
1
  5
CA
  6
CONTINUOUS
 62
1
 10
5.1115
 20
12.4701
 30
0.0
  0
VERTEX
  8
1
  5
CB
  6
CONTINUOUS
 62
1
 10
5.1581
 20
12.4905
 30
0.0
  0
VERTEX
  8
1
  5
CC
  6
CONTINUOUS
 62
1
 10
5.2178
 20
12.5166
 30
0.0
  0
VERTEX
  8
1
  5
CD
  6
CONTINUOUS
 62
1
 10
5.2178
 20
12.5166
 30
0.0
  0
VERTEX
  8
1
  5
CE
  6
CONTINUOUS
 62
1
 10
5.2886
 20
12.5091
 30
0.0
  0
VERTEX
  8
1
  5
CF
  6
CONTINUOUS
 62
1
 10
5.3315
 20
12.4812
 30
0.0
  0
VERTEX
  8
1
  5
D0
  6
CONTINUOUS
 62
1
 10
5.3706
 20
12.4384
 30
0.0
  0
VERTEX
  8
1
  5
D1
  6
CONTINUOUS
 62
1
 10
5.3855
 20
12.3751
 30
0.0
  0
VERTEX
  8
1
  5
D2
  6
CONTINUOUS
 62
1
 10
5.3967
 20
12.3026
 30
0.0
  0
VERTEX
  8
1
  5
D3
  6
CONTINUOUS
 62
1
 10
5.4153
 20
12.2225
 30
0.0
  0
VERTEX
  8
1
  5
D4
  6
CONTINUOUS
 62
1
 10
5.4284
 20
12.1351
 30
0.0
  0
VERTEX
  8
1
  5
D5
  6
CONTINUOUS
 62
1
 10
5.4452
 20
12.0662
 30
0.0
  0
VERTEX
  8
1
  5
D6
  6
CONTINUOUS
 62
1
 10
5.4675
 20
11.9769
 30
0.0
  0
VERTEX
  8
1
  5
D7
  6
CONTINUOUS
 62
1
 10
5.4936
 20
11.9099
 30
0.0
  0
VERTEX
  8
1
  5
D8
  6
CONTINUOUS
 62
1
 10
5.516
 20
11.8261
 30
0.0
  0
VERTEX
  8
1
  5
D9
  6
CONTINUOUS
 62
1
 10
5.5458
 20
11.7591
 30
0.0
  0
VERTEX
  8
1
  5
DA
  6
CONTINUOUS
 62
1
 10
5.5812
 20
11.7052
 30
0.0
  0
VERTEX
  8
1
  5
DB
  6
CONTINUOUS
 62
1
 10
5.6371
 20
11.6531
 30
0.0
  0
VERTEX
  8
1
  5
DC
  6
CONTINUOUS
 62
1
 10
5.7135
 20
11.5935
 30
0.0
  0
VERTEX
  8
1
  5
DD
  6
CONTINUOUS
 62
1
 10
5.7732
 20
11.5693
 30
0.0
  0
VERTEX
  8
1
  5
DE
  6
CONTINUOUS
 62
1
 10
5.8459
 20
11.547
 30
0.0
  0
VERTEX
  8
1
  5
DF
  6
CONTINUOUS
 62
1
 10
5.9391
 20
11.5098
 30
0.0
  0
VERTEX
  8
1
  5
E0
  6
CONTINUOUS
 62
1
 10
6.0509
 20
11.4558
 30
0.0
  0
VERTEX
  8
1
  5
E1
  6
CONTINUOUS
 62
1
 10
6.1683
 20
11.426
 30
0.0
  0
VERTEX
  8
1
  5
E2
  6
CONTINUOUS
 62
1
 10
6.3006
 20
11.4111
 30
0.0
  0
VERTEX
  8
1
  5
E3
  6
CONTINUOUS
 62
1
 10
6.418
 20
11.4149
 30
0.0
  0
VERTEX
  8
1
  5
E4
  6
CONTINUOUS
 62
1
 10
6.5019
 20
11.4353
 30
0.0
  0
VERTEX
  8
1
  5
E5
  6
CONTINUOUS
 62
1
 10
6.5765
 20
11.4707
 30
0.0
  0
VERTEX
  8
1
  5
E6
  6
CONTINUOUS
 62
1
 10
6.6473
 20
11.5005
 30
0.0
  0
VERTEX
  8
1
  5
E7
  6
CONTINUOUS
 62
1
 10
6.7386
 20
11.5228
 30
0.0
  0
VERTEX
  8
1
  5
E8
  6
CONTINUOUS
 62
1
 10
6.8467
 20
11.5507
 30
0.0
  0
VERTEX
  8
1
  5
E9
  6
CONTINUOUS
 62
1
 10
6.9511
 20
11.5712
 30
0.0
  0
VERTEX
  8
1
  5
EA
  6
CONTINUOUS
 62
1
 10
7.0778
 20
11.5861
 30
0.0
  0
VERTEX
  8
1
  5
EB
  6
CONTINUOUS
 62
1
 10
7.1505
 20
11.5935
 30
0.0
  0
VERTEX
  8
1
  5
EC
  6
CONTINUOUS
 62
1
 10
7.2288
 20
11.601
 30
0.0
  0
VERTEX
  8
1
  5
ED
  6
CONTINUOUS
 62
1
 10
7.3108
 20
11.5824
 30
0.0
  0
VERTEX
  8
1
  5
EE
  6
CONTINUOUS
 62
1
 10
7.3816
 20
11.5563
 30
0.0
  0
VERTEX
  8
1
  5
EF
  6
CONTINUOUS
 62
1
 10
7.4879
 20
11.5228
 30
0.0
  0
VERTEX
  8
1
  5
F0
  6
CONTINUOUS
 62
1
 10
7.5978
 20
11.4837
 30
0.0
  0
VERTEX
  8
1
  5
F1
  6
CONTINUOUS
 62
1
 10
7.7059
 20
11.4428
 30
0.0
  0
VERTEX
  8
1
  5
F2
  6
CONTINUOUS
 62
1
 10
7.7973
 20
11.4037
 30
0.0
  0
VERTEX
  8
1
  5
F3
  6
CONTINUOUS
 62
1
 10
7.9072
 20
11.3721
 30
0.0
  0
VERTEX
  8
1
  5
F4
  6
CONTINUOUS
 62
1
 10
7.9874
 20
11.3553
 30
0.0
  0
VERTEX
  8
1
  5
F5
  6
CONTINUOUS
 62
1
 10
8.0582
 20
11.3497
 30
0.0
  0
VERTEX
  8
1
  5
F6
  6
CONTINUOUS
 62
1
 10
8.1383
 20
11.3721
 30
0.0
  0
VERTEX
  8
1
  5
F7
  6
CONTINUOUS
 62
1
 10
8.2278
 20
11.4111
 30
0.0
  0
VERTEX
  8
1
  5
F8
  6
CONTINUOUS
 62
1
 10
8.2837
 20
11.4502
 30
0.0
  0
VERTEX
  8
1
  5
F9
  6
CONTINUOUS
 62
1
 10
8.362
 20
11.547
 30
0.0
  0
VERTEX
  8
1
  5
FA
  6
CONTINUOUS
 62
1
 10
8.4235
 20
11.6159
 30
0.0
  0
VERTEX
  8
1
  5
FB
  6
CONTINUOUS
 62
1
 10
8.4887
 20
11.6866
 30
0.0
  0
VERTEX
  8
1
  5
FC
  6
CONTINUOUS
 62
1
 10
8.5465
 20
11.7629
 30
0.0
  0
VERTEX
  8
1
  5
FD
  6
CONTINUOUS
 62
1
 10
8.6229
 20
11.8187
 30
0.0
  0
VERTEX
  8
1
  5
FE
  6
CONTINUOUS
 62
1
 10
8.7049
 20
11.869
 30
0.0
  0
VERTEX
  8
1
  5
FF
  6
CONTINUOUS
 62
1
 10
8.7664
 20
11.8876
 30
0.0
  0
VERTEX
  8
1
  5
100
  6
CONTINUOUS
 62
1
 10
8.8503
 20
11.895
 30
0.0
  0
VERTEX
  8
1
  5
101
  6
CONTINUOUS
 62
1
 10
8.9323
 20
11.9211
 30
0.0
  0
VERTEX
  8
1
  5
102
  6
CONTINUOUS
 62
1
 10
9.0031
 20
11.9508
 30
0.0
  0
VERTEX
  8
1
  5
103
  6
CONTINUOUS
 62
1
 10
9.0534
 20
11.9862
 30
0.0
  0
VERTEX
  8
1
  5
104
  6
CONTINUOUS
 62
1
 10
9.0963
 20
12.003
 30
0.0
  0
VERTEX
  8
1
  5
105
  6
CONTINUOUS
 62
1
 10
9.1503
 20
12.003
 30
0.0
  0
VERTEX
  8
1
  5
106
  6
CONTINUOUS
 62
1
 10
9.1914
 20
11.9843
 30
0.0
  0
VERTEX
  8
1
  5
107
  6
CONTINUOUS
 62
1
 10
9.223
 20
11.9304
 30
0.0
  0
VERTEX
  8
1
  5
108
  6
CONTINUOUS
 62
1
 10
9.2286
 20
11.869
 30
0.0
  0
VERTEX
  8
1
  5
109
  6
CONTINUOUS
 62
1
 10
9.2044
 20
11.8187
 30
0.0
  0
VERTEX
  8
1
  5
10A
  6
CONTINUOUS
 62
1
 10
9.1429
 20
11.7536
 30
0.0
  0
VERTEX
  8
1
  5
10B
  6
CONTINUOUS
 62
1
 10
9.059
 20
11.6884
 30
0.0
  0
VERTEX
  8
1
  5
10C
  6
CONTINUOUS
 62
1
 10
8.9155
 20
11.5563
 30
0.0
  0
VERTEX
  8
1
  5
10D
  6
CONTINUOUS
 62
1
 10
8.8205
 20
11.4502
 30
0.0
  0
VERTEX
  8
1
  5
10E
  6
CONTINUOUS
 62
1
 10
8.7832
 20
11.4093
 30
0.0
  0
VERTEX
  8
1
  5
10F
  6
CONTINUOUS
 62
1
 10
8.7739
 20
11.359
 30
0.0
  0
VERTEX
  8
1
  5
110
  6
CONTINUOUS
 62
1
 10
8.7869
 20
11.3293
 30
0.0
  0
VERTEX
  8
1
  5
111
  6
CONTINUOUS
 62
1
 10
8.8242
 20
11.3106
 30
0.0
  0
VERTEX
  8
1
  5
112
  6
CONTINUOUS
 62
1
 10
8.8857
 20
11.3181
 30
0.0
  0
VERTEX
  8
1
  5
113
  6
CONTINUOUS
 62
1
 10
8.9472
 20
11.3665
 30
0.0
  0
VERTEX
  8
1
  5
114
  6
CONTINUOUS
 62
1
 10
9.0367
 20
11.4595
 30
0.0
  0
VERTEX
  8
1
  5
115
  6
CONTINUOUS
 62
1
 10
9.1317
 20
11.5489
 30
0.0
  0
VERTEX
  8
1
  5
116
  6
CONTINUOUS
 62
1
 10
9.2603
 20
11.6456
 30
0.0
  0
VERTEX
  8
1
  5
117
  6
CONTINUOUS
 62
1
 10
9.3777
 20
11.7461
 30
0.0
  0
VERTEX
  8
1
  5
118
  6
CONTINUOUS
 62
1
 10
9.4635
 20
11.815
 30
0.0
  0
VERTEX
  8
1
  5
119
  6
CONTINUOUS
 62
1
 10
9.5585
 20
11.8634
 30
0.0
  0
VERTEX
  8
1
  5
11A
  6
CONTINUOUS
 62
1
 10
9.6424
 20
11.8987
 30
0.0
  0
VERTEX
  8
1
  5
11B
  6
CONTINUOUS
 62
1
 10
9.7076
 20
11.9415
 30
0.0
  0
VERTEX
  8
1
  5
11C
  6
CONTINUOUS
 62
1
 10
9.7374
 20
11.9955
 30
0.0
  0
VERTEX
  8
1
  5
11D
  6
CONTINUOUS
 62
1
 10
9.7579
 20
12.07
 30
0.0
  0
VERTEX
  8
1
  5
11E
  6
CONTINUOUS
 62
1
 10
9.7635
 20
12.1816
 30
0.0
  0
VERTEX
  8
1
  5
11F
  6
CONTINUOUS
 62
1
 10
9.7635
 20
12.2933
 30
0.0
  0
VERTEX
  8
1
  5
120
  6
CONTINUOUS
 62
1
 10
9.7673
 20
12.3975
 30
0.0
  0
VERTEX
  8
1
  5
121
  6
CONTINUOUS
 62
1
 10
9.784
 20
12.4608
 30
0.0
  0
VERTEX
  8
1
  5
122
  6
CONTINUOUS
 62
1
 10
9.8214
 20
12.5278
 30
0.0
  0
VERTEX
  8
1
  5
123
  6
CONTINUOUS
 62
1
 10
9.8661
 20
12.565
 30
0.0
  0
VERTEX
  8
1
  5
124
  6
CONTINUOUS
 62
1
 10
9.9127
 20
12.6041
 30
0.0
  0
VERTEX
  8
1
  5
125
  6
CONTINUOUS
 62
1
 10
9.9835
 20
12.6134
 30
0.0
  0
VERTEX
  8
1
  5
126
  6
CONTINUOUS
 62
1
 10
10.0562
 20
12.6153
 30
0.0
  0
VERTEX
  8
1
  5
127
  6
CONTINUOUS
 62
1
 10
10.1252
 20
12.6209
 30
0.0
  0
VERTEX
  8
1
  5
128
  6
CONTINUOUS
 62
1
 10
10.1979
 20
12.6153
 30
0.0
  0
VERTEX
  8
1
  5
129
  6
CONTINUOUS
 62
1
 10
10.2389
 20
12.5967
 30
0.0
  0
VERTEX
  8
1
  5
12A
  6
CONTINUOUS
 62
1
 10
10.3004
 20
12.5688
 30
0.0
  0
VERTEX
  8
1
  5
12B
  6
CONTINUOUS
 62
1
 10
10.3936
 20
12.5539
 30
0.0
  0
VERTEX
  8
1
  5
12C
  6
CONTINUOUS
 62
1
 10
10.4607
 20
12.5557
 30
0.0
  0
VERTEX
  8
1
  5
12D
  6
CONTINUOUS
 62
1
 10
10.5128
 20
12.552
 30
0.0
  0
VERTEX
  8
1
  5
12E
  6
CONTINUOUS
 62
1
 10
10.5688
 20
12.5092
 30
0.0
  0
VERTEX
  8
1
  5
12F
  6
CONTINUOUS
 62
1
 10
10.6154
 20
12.4776
 30
0.0
  0
VERTEX
  8
1
  5
130
  6
CONTINUOUS
 62
1
 10
10.6806
 20
12.4645
 30
0.0
  0
VERTEX
  8
1
  5
131
  6
CONTINUOUS
 62
1
 10
10.7589
 20
12.4627
 30
0.0
  0
VERTEX
  8
1
  5
132
  6
CONTINUOUS
 62
1
 10
10.7589
 20
12.4627
 30
0.0
  0
VERTEX
  8
1
  5
133
  6
CONTINUOUS
 62
1
 10
10.839
 20
12.4571
 30
0.0
  0
VERTEX
  8
1
  5
134
  6
CONTINUOUS
 62
1
 10
10.921
 20
12.4515
 30
0.0
  0
VERTEX
  8
1
  5
135
  6
CONTINUOUS
 62
1
 10
10.9602
 20
12.4422
 30
0.0
  0
VERTEX
  8
1
  5
136
  6
CONTINUOUS
 62
1
 10
10.9937
 20
12.4199
 30
0.0
  0
VERTEX
  8
1
  5
137
  6
CONTINUOUS
 62
1
 10
11.1111
 20
12.3082
 30
0.0
  0
VERTEX
  8
1
  5
138
  6
CONTINUOUS
 62
1
 10
11.126
 20
12.2747
 30
0.0
  0
VERTEX
  8
1
  5
139
  6
CONTINUOUS
 62
1
 10
11.1242
 20
12.2003
 30
0.0
  0
VERTEX
  8
1
  5
13A
  6
CONTINUOUS
 62
1
 10
11.126
 20
12.0737
 30
0.0
  0
VERTEX
  8
1
  5
13B
  6
CONTINUOUS
 62
1
 10
11.1279
 20
11.9434
 30
0.0
  0
VERTEX
  8
1
  5
13C
  6
CONTINUOUS
 62
1
 10
11.1298
 20
11.8355
 30
0.0
  0
VERTEX
  8
1
  5
13D
  6
CONTINUOUS
 62
1
 10
11.1335
 20
11.8057
 30
0.0
  0
VERTEX
  8
1
  5
13E
  6
CONTINUOUS
 62
1
 10
11.1521
 20
11.7853
 30
0.0
  0
VERTEX
  8
1
  5
13F
  6
CONTINUOUS
 62
1
 10
11.2155
 20
11.7555
 30
0.0
  0
VERTEX
  8
1
  5
140
  6
CONTINUOUS
 62
1
 10
11.3012
 20
11.7294
 30
0.0
  0
VERTEX
  8
1
  5
141
  6
CONTINUOUS
 62
1
 10
11.3776
 20
11.7201
 30
0.0
  0
VERTEX
  8
1
  5
142
  6
CONTINUOUS
 62
1
 10
11.4354
 20
11.709
 30
0.0
  0
VERTEX
  8
1
  5
143
  6
CONTINUOUS
 62
1
 10
11.4839
 20
11.6903
 30
0.0
  0
VERTEX
  8
1
  5
144
  6
CONTINUOUS
 62
1
 10
11.5249
 20
11.6494
 30
0.0
  0
VERTEX
  8
1
  5
145
  6
CONTINUOUS
 62
1
 10
11.5566
 20
11.601
 30
0.0
  0
VERTEX
  8
1
  5
146
  6
CONTINUOUS
 62
1
 10
11.5696
 20
11.5489
 30
0.0
  0
VERTEX
  8
1
  5
147
  6
CONTINUOUS
 62
1
 10
11.5678
 20
11.4707
 30
0.0
  0
VERTEX
  8
1
  5
148
  6
CONTINUOUS
 62
1
 10
11.5678
 20
11.4019
 30
0.0
  0
VERTEX
  8
1
  5
149
  6
CONTINUOUS
 62
1
 10
11.5584
 20
11.3498
 30
0.0
  0
VERTEX
  8
1
  5
14A
  6
CONTINUOUS
 62
1
 10
11.5323
 20
11.3126
 30
0.0
  0
VERTEX
  8
1
  5
14B
  6
CONTINUOUS
 62
1
 10
11.4988
 20
11.2828
 30
0.0
  0
VERTEX
  8
1
  5
14C
  6
CONTINUOUS
 62
1
 10
11.4485
 20
11.2642
 30
0.0
  0
VERTEX
  8
1
  5
14D
  6
CONTINUOUS
 62
1
 10
11.3758
 20
11.2642
 30
0.0
  0
VERTEX
  8
1
  5
14E
  6
CONTINUOUS
 62
1
 10
11.2024
 20
11.2549
 30
0.0
  0
VERTEX
  8
1
  5
14F
  6
CONTINUOUS
 62
1
 10
11.1503
 20
11.2437
 30
0.0
  0
VERTEX
  8
1
  5
150
  6
CONTINUOUS
 62
1
 10
11.1186
 20
11.2214
 30
0.0
  0
VERTEX
  8
1
  5
151
  6
CONTINUOUS
 62
1
 10
11.0291
 20
11.1134
 30
0.0
  0
VERTEX
  8
1
  5
152
  6
CONTINUOUS
 62
1
 10
10.9787
 20
11.0203
 30
0.0
  0
VERTEX
  8
1
  5
153
  6
CONTINUOUS
 62
1
 10
10.9657
 20
10.9645
 30
0.0
  0
VERTEX
  8
1
  5
154
  6
CONTINUOUS
 62
1
 10
10.9526
 20
10.9124
 30
0.0
  0
VERTEX
  8
1
  5
155
  6
CONTINUOUS
 62
1
 10
10.9154
 20
10.8715
 30
0.0
  0
VERTEX
  8
1
  5
156
  6
CONTINUOUS
 62
1
 10
10.9023
 20
10.8287
 30
0.0
  0
VERTEX
  8
1
  5
157
  6
CONTINUOUS
 62
1
 10
10.9042
 20
10.7765
 30
0.0
  0
VERTEX
  8
1
  5
158
  6
CONTINUOUS
 62
1
 10
10.9023
 20
10.7095
 30
0.0
  0
VERTEX
  8
1
  5
159
  6
CONTINUOUS
 62
1
 10
10.9023
 20
10.6295
 30
0.0
  0
VERTEX
  8
1
  5
15A
  6
CONTINUOUS
 62
1
 10
10.9023
 20
10.5086
 30
0.0
  0
VERTEX
  8
1
  5
15B
  6
CONTINUOUS
 62
1
 10
10.9172
 20
10.3243
 30
0.0
  0
VERTEX
  8
1
  5
15C
  6
CONTINUOUS
 62
1
 10
10.9321
 20
10.2573
 30
0.0
  0
VERTEX
  8
1
  5
15D
  6
CONTINUOUS
 62
1
 10
10.9321
 20
10.1847
 30
0.0
  0
VERTEX
  8
1
  5
15E
  6
CONTINUOUS
 62
1
 10
10.9135
 20
10.1401
 30
0.0
  0
VERTEX
  8
1
  5
15F
  6
CONTINUOUS
 62
1
 10
10.8688
 20
10.1084
 30
0.0
  0
VERTEX
  8
1
  5
160
  6
CONTINUOUS
 62
1
 10
10.8278
 20
10.0712
 30
0.0
  0
VERTEX
  8
1
  5
161
  6
CONTINUOUS
 62
1
 10
10.7029
 20
9.9968
 30
0.0
  0
VERTEX
  8
1
  5
162
  6
CONTINUOUS
 62
1
 10
10.6432
 20
9.9521
 30
0.0
  0
VERTEX
  8
1
  5
163
  6
CONTINUOUS
 62
1
 10
10.6078
 20
9.9167
 30
0.0
  0
VERTEX
  8
1
  5
164
  6
CONTINUOUS
 62
1
 10
10.5799
 20
9.8888
 30
0.0
  0
VERTEX
  8
1
  5
165
  6
CONTINUOUS
 62
1
 10
10.5612
 20
9.8516
 30
0.0
  0
VERTEX
  8
1
  5
166
  6
CONTINUOUS
 62
1
 10
10.5463
 20
9.8144
 30
0.0
  0
VERTEX
  8
1
  5
167
  6
CONTINUOUS
 62
1
 10
10.5277
 20
9.766
 30
0.0
  0
VERTEX
  8
1
  5
168
  6
CONTINUOUS
 62
1
 10
10.5053
 20
9.7176
 30
0.0
  0
VERTEX
  8
1
  5
169
  6
CONTINUOUS
 62
1
 10
10.4755
 20
9.6599
 30
0.0
  0
VERTEX
  8
1
  5
16A
  6
CONTINUOUS
 62
1
 10
10.4438
 20
9.5743
 30
0.0
  0
VERTEX
  8
1
  5
16B
  6
CONTINUOUS
 62
1
 10
10.4029
 20
9.4477
 30
0.0
  0
VERTEX
  8
1
  5
16C
  6
CONTINUOUS
 62
1
 10
10.3637
 20
9.3472
 30
0.0
  0
VERTEX
  8
1
  5
16D
  6
CONTINUOUS
 62
1
 10
10.3078
 20
9.2467
 30
0.0
  0
VERTEX
  8
1
  5
16E
  6
CONTINUOUS
 62
1
 10
10.2389
 20
9.1648
 30
0.0
  0
VERTEX
  8
1
  5
16F
  6
CONTINUOUS
 62
1
 10
10.1699
 20
9.0885
 30
0.0
  0
VERTEX
  8
1
  5
170
  6
CONTINUOUS
 62
1
 10
10.0842
 20
9.0029
 30
0.0
  0
VERTEX
  8
1
  5
171
  6
CONTINUOUS
 62
1
 10
9.9984
 20
8.9527
 30
0.0
  0
VERTEX
  8
1
  5
172
  6
CONTINUOUS
 62
1
 10
9.8885
 20
8.9061
 30
0.0
  0
VERTEX
  8
1
  5
173
  6
CONTINUOUS
 62
1
 10
9.7617
 20
8.8578
 30
0.0
  0
VERTEX
  8
1
  5
174
  6
CONTINUOUS
 62
1
 10
9.6667
 20
8.8205
 30
0.0
  0
VERTEX
  8
1
  5
175
  6
CONTINUOUS
 62
1
 10
9.6108
 20
8.7982
 30
0.0
  0
VERTEX
  8
1
  5
176
  6
CONTINUOUS
 62
1
 10
9.5567
 20
8.7647
 30
0.0
  0
VERTEX
  8
1
  5
177
  6
CONTINUOUS
 62
1
 10
9.4672
 20
8.748
 30
0.0
  0
VERTEX
  8
1
  5
178
  6
CONTINUOUS
 62
1
 10
9.3405
 20
8.748
 30
0.0
  0
VERTEX
  8
1
  5
179
  6
CONTINUOUS
 62
1
 10
9.2325
 20
8.7629
 30
0.0
  0
VERTEX
  8
1
  5
17A
  6
CONTINUOUS
 62
1
 10
9.1691
 20
8.7703
 30
0.0
  0
VERTEX
  8
1
  5
17B
  6
CONTINUOUS
 62
1
 10
9.0983
 20
8.7592
 30
0.0
  0
VERTEX
  8
1
  5
17C
  6
CONTINUOUS
 62
1
 10
9.0424
 20
8.7294
 30
0.0
  0
VERTEX
  8
1
  5
17D
  6
CONTINUOUS
 62
1
 10
8.9715
 20
8.6698
 30
0.0
  0
VERTEX
  8
1
  5
17E
  6
CONTINUOUS
 62
1
 10
8.9156
 20
8.6196
 30
0.0
  0
VERTEX
  8
1
  5
17F
  6
CONTINUOUS
 62
1
 10
8.8597
 20
8.5545
 30
0.0
  0
VERTEX
  8
1
  5
180
  6
CONTINUOUS
 62
1
 10
8.8411
 20
8.4875
 30
0.0
  0
VERTEX
  8
1
  5
181
  6
CONTINUOUS
 62
1
 10
8.8504
 20
8.4335
 30
0.0
  0
VERTEX
  8
1
  5
182
  6
CONTINUOUS
 62
1
 10
8.9063
 20
8.387
 30
0.0
  0
VERTEX
  8
1
  5
183
  6
CONTINUOUS
 62
1
 10
9.0107
 20
8.3311
 30
0.0
  0
VERTEX
  8
1
  5
184
  6
CONTINUOUS
 62
1
 10
9.1113
 20
8.3088
 30
0.0
  0
VERTEX
  8
1
  5
185
  6
CONTINUOUS
 62
1
 10
9.2679
 20
8.2679
 30
0.0
  0
VERTEX
  8
1
  5
186
  6
CONTINUOUS
 62
1
 10
9.3834
 20
8.2604
 30
0.0
  0
VERTEX
  8
1
  5
187
  6
CONTINUOUS
 62
1
 10
9.4729
 20
8.2586
 30
0.0
  0
VERTEX
  8
1
  5
188
  6
CONTINUOUS
 62
1
 10
9.5325
 20
8.2437
 30
0.0
  0
VERTEX
  8
1
  5
189
  6
CONTINUOUS
 62
1
 10
9.5847
 20
8.2139
 30
0.0
  0
VERTEX
  8
1
  5
18A
  6
CONTINUOUS
 62
1
 10
9.6406
 20
8.1674
 30
0.0
  0
VERTEX
  8
1
  5
18B
  6
CONTINUOUS
 62
1
 10
9.6611
 20
8.0818
 30
0.0
  0
VERTEX
  8
1
  5
18C
  6
CONTINUOUS
 62
1
 10
9.65
 20
8.011
 30
0.0
  0
VERTEX
  8
1
  5
18D
  6
CONTINUOUS
 62
1
 10
9.6183
 20
7.931
 30
0.0
  0
VERTEX
  8
1
  5
18E
  6
CONTINUOUS
 62
1
 10
9.5735
 20
7.8566
 30
0.0
  0
VERTEX
  8
1
  5
18F
  6
CONTINUOUS
 62
1
 10
9.4692
 20
7.7393
 30
0.0
  0
VERTEX
  8
1
  5
190
  6
CONTINUOUS
 62
1
 10
9.3182
 20
7.5923
 30
0.0
  0
VERTEX
  8
1
  5
191
  6
CONTINUOUS
 62
1
 10
9.1747
 20
7.4527
 30
0.0
  0
VERTEX
  8
1
  5
192
  6
CONTINUOUS
 62
1
 10
8.897
 20
7.222
 30
0.0
  0
VERTEX
  8
1
  5
193
  6
CONTINUOUS
 62
1
 10
8.7143
 20
7.0712
 30
0.0
  0
VERTEX
  8
1
  5
194
  6
CONTINUOUS
 62
1
 10
8.5447
 20
6.9056
 30
0.0
  0
VERTEX
  8
1
  5
195
  6
CONTINUOUS
 62
1
 10
8.4254
 20
6.8014
 30
0.0
  0
VERTEX
  8
1
  5
196
  6
CONTINUOUS
 62
1
 10
8.3117
 20
6.699
 30
0.0
  0
VERTEX
  8
1
  5
197
  6
CONTINUOUS
 62
1
 10
8.3117
 20
6.699
 30
0.0
  0
VERTEX
  8
1
  5
198
  6
CONTINUOUS
 62
1
 10
8.0713
 20
6.4887
 30
0.0
  0
VERTEX
  8
1
  5
199
  6
CONTINUOUS
 62
1
 10
7.8626
 20
6.2989
 30
0.0
  0
VERTEX
  8
1
  5
19A
  6
CONTINUOUS
 62
1
 10
7.6557
 20
6.124
 30
0.0
  0
VERTEX
  8
1
  5
19B
  6
CONTINUOUS
 62
1
 10
7.46
 20
5.9546
 30
0.0
  0
VERTEX
  8
1
  5
19C
  6
CONTINUOUS
 62
1
 10
7.2233
 20
5.7518
 30
0.0
  0
VERTEX
  8
1
  5
19D
  6
CONTINUOUS
 62
1
 10
7.0966
 20
5.629
 30
0.0
  0
VERTEX
  8
1
  5
19E
  6
CONTINUOUS
 62
1
 10
6.9586
 20
5.5099
 30
0.0
  0
VERTEX
  8
1
  5
19F
  6
CONTINUOUS
 62
1
 10
6.8151
 20
5.3666
 30
0.0
  0
VERTEX
  8
1
  5
1A0
  6
CONTINUOUS
 62
1
 10
6.6362
 20
5.2288
 30
0.0
  0
VERTEX
  8
1
  5
1A1
  6
CONTINUOUS
 62
1
 10
6.5523
 20
5.1488
 30
0.0
  0
VERTEX
  8
1
  5
1A2
  6
CONTINUOUS
 62
1
 10
6.4517
 20
5.0167
 30
0.0
  0
VERTEX
  8
1
  5
1A3
  6
CONTINUOUS
 62
1
 10
6.3697
 20
4.879
 30
0.0
  0
VERTEX
  8
1
  5
1A4
  6
CONTINUOUS
 62
1
 10
6.2709
 20
4.7357
 30
0.0
  0
VERTEX
  8
1
  5
1A5
  6
CONTINUOUS
 62
1
 10
6.2019
 20
4.6035
 30
0.0
  0
VERTEX
  8
1
  5
1A6
  6
CONTINUOUS
 62
1
 10
6.1404
 20
4.4398
 30
0.0
  0
VERTEX
  8
1
  5
1A7
  6
CONTINUOUS
 62
1
 10
6.1311
 20
4.3877
 30
0.0
  0
VERTEX
  8
1
  5
1A8
  6
CONTINUOUS
 62
1
 10
6.1405
 20
4.3374
 30
0.0
  0
VERTEX
  8
1
  5
1A9
  6
CONTINUOUS
 62
1
 10
6.1293
 20
4.3076
 30
0.0
  0
VERTEX
  8
1
  5
1AA
  6
CONTINUOUS
 62
1
 10
6.0976
 20
4.2518
 30
0.0
  0
VERTEX
  8
1
  5
1AB
  6
CONTINUOUS
 62
1
 10
6.0603
 20
4.196
 30
0.0
  0
VERTEX
  8
1
  5
1AC
  6
CONTINUOUS
 62
1
 10
6.0361
 20
4.1606
 30
0.0
  0
VERTEX
  8
1
  5
1AD
  6
CONTINUOUS
 62
1
 10
6.0156
 20
4.1308
 30
0.0
  0
SEQEND
  8
1
  5
1AE
  0
LINE
  8
1
  5
1B0
  6
CONTINUOUS
 62
1
 10
4.5396
 20
14.6006
 30
0.0
 11
6.5004
 21
14.6238
 31
0.0
  0
LINE
  8
1
  5
1B2
  6
CONTINUOUS
 62
1
 10
4.5425
 20
14.5977
 30
0.0
 11
4.5425
 21
14.8935
 31
0.0
  0
LINE
  8
1
  5
1B4
  6
CONTINUOUS
 62
1
 10
5.5244
 20
14.6151
 30
0.0
 11
5.5244
 21
14.9342
 31
0.0
  0
LINE
  8
1
  5
1B6
  6
CONTINUOUS
 62
1
 10
6.5033
 20
14.6238
 30
0.0
 11
6.5033
 21
14.911
 31
0.0
  0
LINE
  8
1
  5
1B8
  6
CONTINUOUS
 62
1
 10
3.7001
 20
14.5948
 30
0.0
 11
3.7001
 21
14.9313
 31
0.0
  0
LINE
  8
1
  5
1BA
  6
CONTINUOUS
 62
1
 10
3.6972
 20
14.6499
 30
0.0
 11
4.5396
 21
14.6499
 31
0.0
  0
LINE
  8
1
  5
1BC
  6
CONTINUOUS
 62
1
 10
3.6797
 20
14.6876
 30
0.0
 11
4.5832
 21
14.6876
 31
0.0
  0
LINE
  8
1
  5
1BE
  6
CONTINUOUS
 62
1
 10
2.5281
 20
14.9844
 30
0.0
 11
2.9121
 21
13.3229
 31
0.0
  0
LINE
  8
1
  5
1C0
  6
CONTINUOUS
 62
1
 10
2.5281
 20
14.9844
 30
0.0
 11
2.4001
 21
13.9254
 31
0.0
  0
LINE
  8
1
  5
1C2
  6
CONTINUOUS
 62
1
 10
2.5281
 20
14.9844
 30
0.0
 11
3.1498
 21
14.1993
 31
0.0
  0
POLYLINE
  8
1
  5
1C4
  6
CONTINUOUS
 62
1
 10
0.0
 20
0.0
 30
0.0
 66
1
 70
0
  0
VERTEX
  8
1
  5
1C5
  6
CONTINUOUS
 62
1
 10
2.1624
 20
14.2358
 30
0.0
  0
VERTEX
  8
1
  5
1C6
  6
CONTINUOUS
 62
1
 10
2.1075
 20
14.4914
 30
0.0
  0
VERTEX
  8
1
  5
1C7
  6
CONTINUOUS
 62
1
 10
2.3269
 20
14.3089
 30
0.0
  0
VERTEX
  8
1
  5
1C8
  6
CONTINUOUS
 62
1
 10
2.2538
 20
14.5827
 30
0.0
  0
SEQEND
  8
1
  5
1C9
  0
ENDSEC
  0
EOF
